<svg width="10" height="16" viewBox="0 0 10 16" fill="none" xmlns="http://www.w3.org/2000/svg">
<path d="M4.99973 2.42035C5.96186 2.42035 6.74431 3.18736 6.74431 4.1305C6.74431 5.0708 5.96186 5.83781 4.99973 5.83781C4.03761 5.83781 3.25516 5.0708 3.25516 4.1305C3.25516 3.18736 4.03761 2.42035 4.99973 2.42035ZM4.99973 8.25816C7.3239 8.25816 9.21337 6.40597 9.21337 4.1305C9.21337 1.85219 7.3239 0 4.99973 0C2.67557 0 0.788995 1.85219 0.788995 4.1305C0.788995 6.40597 2.67557 8.25816 4.99973 8.25816ZM6.70374 11.6273C7.56153 11.4342 8.38745 11.1018 9.14962 10.6331C9.72631 10.278 9.90019 9.53083 9.53794 8.96551C9.1728 8.39735 8.41353 8.22691 7.83394 8.58485C6.10965 9.6473 3.88981 9.6473 2.16263 8.58485C1.58593 8.22691 0.823771 8.39735 0.461526 8.96551C0.09928 9.53083 0.273157 10.278 0.849852 10.6331C1.61202 11.1018 2.43794 11.4342 3.29573 11.6273L0.939689 13.934C0.458627 14.4056 0.458627 15.1726 0.939689 15.6442C1.18312 15.88 1.4961 15.9993 1.81198 15.9993C2.12785 15.9993 2.44373 15.88 2.68716 15.6442L4.99973 13.3772L7.31521 15.6442C7.79627 16.1186 8.57582 16.1186 9.05978 15.6442C9.54084 15.1726 9.54084 14.4056 9.05978 13.934L6.70374 11.6273Z" fill="white"/>
</svg>
